<svg width="24" height="24" viewBox="0 0 24 24" fill="none" xmlns="http://www.w3.org/2000/svg">
<rect width="24" height="24" rx="12" fill="#D93B2B" fill-opacity="0.1"/>
<path fill-rule="evenodd" clip-rule="evenodd" d="M7.24374 7.25441C7.39986 7.09818 7.61157 7.01042 7.83232 7.01042C8.05307 7.01042 8.26478 7.09818 8.42089 7.25441L11.9948 10.8319L15.5687 7.25441C15.6455 7.17482 15.7374 7.11133 15.8389 7.06766C15.9405 7.02398 16.0497 7.00099 16.1603 7.00003C16.2708 6.99907 16.3804 7.02015 16.4827 7.06206C16.5851 7.10396 16.678 7.16583 16.7562 7.24408C16.8343 7.32232 16.8961 7.41536 16.938 7.51778C16.9799 7.62019 17.0009 7.72993 17 7.84057C16.999 7.95122 16.976 8.06057 16.9324 8.16224C16.8888 8.26391 16.8254 8.35587 16.7458 8.43274L13.1719 12.0102L16.7458 15.5877C16.8975 15.7449 16.9814 15.9554 16.9795 16.1739C16.9776 16.3924 16.8901 16.6014 16.7357 16.7559C16.5814 16.9104 16.3726 16.9981 16.1543 17C15.936 17.0019 15.7257 16.9179 15.5687 16.7661L11.9948 13.1886L8.42089 16.7661C8.26388 16.9179 8.05359 17.0019 7.83531 17C7.61704 16.9981 7.40824 16.9104 7.25388 16.7559C7.09953 16.6014 7.01198 16.3924 7.01008 16.1739C7.00819 15.9554 7.0921 15.7449 7.24374 15.5877L10.8176 12.0102L7.24374 8.43274C7.08767 8.27647 7 8.06454 7 7.84357C7 7.6226 7.08767 7.41068 7.24374 7.25441Z" fill="#D93B2B"/>
</svg>
