<svg width="141" height="90" viewBox="0 0 141 90" fill="none" xmlns="http://www.w3.org/2000/svg">
<path d="M0 19H141V81.0452C141 85.4634 137.418 89.0452 133 89.0452H8C3.58172 89.0452 0 85.4634 0 81.0452V19Z" fill="#F0F2F9"/>
<rect x="13" y="68.6453" width="26.3806" height="2" rx="1" fill="#182252" fill-opacity="0.1"/>
<rect x="52" y="69" width="29" height="2" rx="1" fill="#182252" fill-opacity="0.1"/>
<rect x="102.148" y="68.6453" width="24.5613" height="2" rx="1" fill="#182252" fill-opacity="0.1"/>
<rect x="12.9932" y="57" width="24" height="2" rx="0.909677" fill="#182252" fill-opacity="0.1"/>
<rect x="52" y="57" width="37" height="2" rx="0.909677" fill="#182252" fill-opacity="0.1"/>
<rect x="102.148" y="57.0001" width="18.1935" height="2" rx="0.909677" fill="#182252" fill-opacity="0.1"/>
<rect x="12.9932" y="45" width="17" height="2" rx="0.909677" fill="#182252" fill-opacity="0.1"/>
<rect x="52" y="45" width="29" height="2" rx="0.909677" fill="#182252" fill-opacity="0.1"/>
<rect x="102.148" y="44.6453" width="24.5613" height="2" rx="0.909677" fill="#182252" fill-opacity="0.1"/>
<rect x="13" y="32.6453" width="26.3806" height="2" rx="0.909677" fill="#182252" fill-opacity="0.1"/>
<rect x="52" y="33" width="38" height="2" rx="0.909677" fill="#182252" fill-opacity="0.1"/>
<rect x="102.148" y="32.6451" width="26.3806" height="2" rx="0.909677" fill="#182252" fill-opacity="0.1"/>
<path d="M0 8C0 3.58172 3.58172 0 8 0H133C137.418 0 141 3.58172 141 8V16H0V8Z" fill="#182252"/>
<rect opacity="0.8" x="11.8096" y="7" width="26.3806" height="2" rx="1" fill="#F0F2F9"/>
<rect opacity="0.8" x="51.1904" y="7" width="37" height="2" rx="1" fill="#F0F2F9"/>
<rect opacity="0.8" x="101.19" y="7" width="28" height="2" rx="1" fill="#F0F2F9"/>
</svg>
