<svg width="16" height="16" viewBox="0 0 16 16" fill="none" xmlns="http://www.w3.org/2000/svg">
<path opacity="0.4" d="M14.1671 6.09905C13.8404 5.57905 13.4671 5.11238 13.0804 4.69238L10.5671 7.20574C10.6471 7.45241 10.6938 7.71908 10.6938 7.99908C10.6938 9.49241 9.48708 10.6924 8.00042 10.6924C7.72042 10.6924 7.45375 10.6457 7.20708 10.5657L4.90039 12.8724C5.87372 13.4191 6.92708 13.7057 8.00042 13.7057C9.18708 13.7057 10.3404 13.3591 11.3938 12.7124C12.4471 12.0591 13.3938 11.1057 14.1671 9.89241C14.8338 8.85241 14.8338 7.14574 14.1671 6.09905Z" fill="#596180"/>
<path d="M9.34707 6.65375L6.65375 9.34707C6.31375 9.0004 6.09375 8.5204 6.09375 8.0004C6.09375 6.95374 6.94707 6.09375 8.0004 6.09375C8.5204 6.09375 9.0004 6.31375 9.34707 6.65375Z" fill="#596180"/>
<path opacity="0.4" d="M12.1673 3.8328L9.90732 6.0928C9.42065 5.59947 8.74732 5.30613 8.00065 5.30613C6.50732 5.30613 5.30732 6.5128 5.30732 7.99947C5.30732 8.74614 5.60732 9.41947 6.09398 9.90614L3.84065 12.1661H3.83398C3.09398 11.5661 2.41398 10.7995 1.83398 9.8928C1.16732 8.84614 1.16732 7.14614 1.83398 6.09947C2.60732 4.88613 3.55398 3.9328 4.60732 3.27947C5.66065 2.63947 6.81398 2.28613 8.00065 2.28613C9.48732 2.28613 10.9273 2.8328 12.1673 3.8328Z" fill="#596180"/>
<path d="M9.9054 7.99873C9.9054 9.0454 9.05206 9.9054 7.99873 9.9054C7.95873 9.9054 7.9254 9.9054 7.8854 9.89206L9.89206 7.8854C9.9054 7.9254 9.9054 7.95873 9.9054 7.99873ZM14.5126 1.48594C14.3126 1.28594 13.9859 1.28594 13.7859 1.48594L1.48594 13.7926C1.28594 13.9926 1.28594 14.3193 1.48594 14.5193C1.58594 14.6126 1.7126 14.6659 1.84594 14.6659C1.97927 14.6659 2.10594 14.6126 2.20594 14.5126L14.5126 2.20594C14.7193 2.00594 14.7193 1.68594 14.5126 1.48594Z" fill="#596180"/>
</svg>
