<svg width="16" height="16" viewBox="0 0 16 16" fill="none" xmlns="http://www.w3.org/2000/svg">
<path d="M14.1663 6.09947C12.6263 3.67947 10.373 2.28613 7.99968 2.28613C6.81301 2.28613 5.65967 2.6328 4.60634 3.27947C3.55301 3.9328 2.60634 4.88613 1.83301 6.09947C1.16634 7.14614 1.16634 8.84614 1.83301 9.89281C3.37301 12.3195 5.62634 13.7061 7.99968 13.7061C9.18634 13.7061 10.3397 13.3595 11.393 12.7128C12.4463 12.0595 13.393 11.1061 14.1663 9.89281C14.833 8.85281 14.833 7.14614 14.1663 6.09947ZM7.99968 10.6928C6.50634 10.6928 5.30634 9.48614 5.30634 7.99947C5.30634 6.5128 6.50634 5.30613 7.99968 5.30613C9.49301 5.30613 10.693 6.5128 10.693 7.99947C10.693 9.48614 9.49301 10.6928 7.99968 10.6928Z" fill="#596180"/>
<path d="M7.99861 6.09375C6.95194 6.09375 6.09863 6.94707 6.09863 8.0004C6.09863 9.04707 6.95194 9.9004 7.99861 9.9004C9.04527 9.9004 9.90527 9.04707 9.90527 8.0004C9.90527 6.95374 9.04527 6.09375 7.99861 6.09375Z" fill="#596180"/>
</svg>
